<svg version="1.1" id="Layer_1" xmlns:x="ns_extend;" xmlns:i="ns_ai;" xmlns:graph="ns_graphs;" xmlns="http://www.w3.org/2000/svg" xmlns:xlink="http://www.w3.org/1999/xlink" x="0px" y="0px" viewBox="0 0 55 55" style="enable-background:new 0 0 55 55;" xml:space="preserve">
 <style type="text/css">
  .st0{fill:#4CC764;}
	.st1{fill:#FFFFFF;}
 </style>
 <metadata>
  <sfw xmlns="ns_sfw;">
   <slices>
   </slices>
   <sliceSourceBounds bottomLeftOrigin="true" height="55" width="55" x="175.5" y="-224.6">
   </sliceSourceBounds>
   <optimizationSettings>
    <targetSettings fileFormat="JPEGFormat" targetSettingsID="0">
     <JPEGFormat blurAmount="0" embedICCProfile="false" matteColor="#FFFFFF" noMatteColor="false" optimized="true" progressive="false" quality="60">
     </JPEGFormat>
    </targetSettings>
   </optimizationSettings>
  </sfw>
 </metadata>
 <g>
  <circle class="st0" cx="27.5" cy="27.5" r="27.5">
  </circle>
  <g>
   <g>
    <g>
     <path class="st1" d="M45.8,25.9c0-8.2-8.2-14.9-18.4-14.9C17.4,11,9.1,17.7,9.1,25.9c0,7.4,6.5,13.5,15.4,14.7
					c0.6,0.1,1.4,0.4,1.6,0.9c0.2,0.5,0.1,1.2,0.1,1.7c0,0-0.2,1.3-0.3,1.6c-0.1,0.5-0.4,1.8,1.6,1c2-0.8,10.6-6.2,14.4-10.7h0
					C44.6,32.1,45.8,29.2,45.8,25.9z">
     </path>
    </g>
    <g>
     <path class="st0" d="M39.7,30.6c0.2,0,0.4-0.2,0.4-0.4V29c0-0.2-0.2-0.4-0.4-0.4h-3.5v-1.4h3.5c0.2,0,0.4-0.2,0.4-0.4v-1.3
					c0-0.2-0.2-0.4-0.4-0.4h-3.5v-1.4h3.5c0.2,0,0.4-0.2,0.4-0.4v-1.3c0-0.2-0.2-0.4-0.4-0.4h-5.2h0c-0.2,0-0.4,0.2-0.4,0.4v0v0v8v0
					v0c0,0.2,0.2,0.4,0.4,0.4h0H39.7z">
     </path>
     <path class="st0" d="M20.7,30.6c0.2,0,0.4-0.2,0.4-0.4V29c0-0.2-0.2-0.4-0.4-0.4h-3.5v-6.4c0-0.2-0.2-0.4-0.4-0.4h-1.3
					c-0.2,0-0.4,0.2-0.4,0.4v8v0v0c0,0.2,0.2,0.4,0.4,0.4h0H20.7z">
     </path>
     <path class="st0" d="M23.8,21.9h-1.3c-0.2,0-0.4,0.2-0.4,0.4v8c0,0.2,0.2,0.4,0.4,0.4h1.3c0.2,0,0.4-0.2,0.4-0.4v-8
					C24.1,22.1,24,21.9,23.8,21.9z">
     </path>
     <path class="st0" d="M32.6,21.9h-1.3c-0.2,0-0.4,0.2-0.4,0.4V27l-3.7-5c0,0,0,0,0,0c0,0,0,0,0,0c0,0,0,0,0,0c0,0,0,0,0,0
					c0,0,0,0,0,0c0,0,0,0,0,0c0,0,0,0,0,0c0,0,0,0,0,0c0,0,0,0,0,0c0,0,0,0,0,0c0,0,0,0,0,0c0,0,0,0,0,0c0,0,0,0,0,0c0,0,0,0,0,0
					c0,0,0,0,0,0c0,0,0,0,0,0c0,0,0,0,0,0c0,0,0,0,0,0c0,0,0,0,0,0h-1.3c-0.2,0-0.4,0.2-0.4,0.4v8c0,0.2,0.2,0.4,0.4,0.4H27
					c0.2,0,0.4-0.2,0.4-0.4v-4.8l3.7,5c0,0,0.1,0.1,0.1,0.1c0,0,0,0,0,0c0,0,0,0,0,0c0,0,0,0,0,0c0,0,0,0,0,0c0,0,0,0,0,0
					c0,0,0,0,0,0c0,0,0,0,0,0c0,0,0,0,0,0c0,0,0.1,0,0.1,0h1.3c0.2,0,0.4-0.2,0.4-0.4v-8C33,22.1,32.8,21.9,32.6,21.9z">
     </path>
    </g>
   </g>
  </g>
 </g>
</svg>