<svg width="187" height="143" viewBox="0 0 187 143" fill="none" xmlns="http://www.w3.org/2000/svg">
<path d="M2.23411 142.973C1.83516 142.973 1.46281 142.866 1.11705 142.679C0.771299 142.493 0.505334 142.199 0.319158 141.878C0.106386 141.531 0 141.157 0 140.756V133.625C0 133.224 0.106386 132.851 0.319158 132.503C0.53193 132.156 0.797895 131.889 1.11705 131.702C1.43621 131.515 1.83516 131.408 2.23411 131.408H9.33537C9.73432 131.408 10.1067 131.515 10.4524 131.702C10.7982 131.889 11.0641 132.183 11.2769 132.503C11.4897 132.851 11.5695 133.224 11.5695 133.625V140.756C11.5695 141.157 11.4631 141.531 11.2769 141.878C11.0641 142.225 10.7982 142.493 10.4524 142.679C10.1067 142.866 9.73432 142.973 9.33537 142.973H2.23411ZM2.3139 140.81H9.22899C9.22899 140.81 9.33537 140.81 9.36197 140.756C9.38857 140.703 9.41516 140.676 9.41516 140.623V133.679C9.41516 133.679 9.41516 133.572 9.36197 133.545C9.30878 133.518 9.28218 133.492 9.22899 133.492H2.3139C2.3139 133.492 2.20751 133.492 2.18091 133.545C2.15432 133.598 2.12772 133.625 2.12772 133.679V140.623C2.12772 140.623 2.12772 140.73 2.18091 140.756C2.23411 140.783 2.2607 140.81 2.3139 140.81ZM14.9472 142.973V131.355H17.2877L24.389 139.848V131.355H26.5167V142.973H24.1762L17.0484 134.48V142.973H14.9206H14.9472ZM29.9477 142.973V131.355H40.6129V133.492H32.102V136.082H38.9373V138.246H32.102V140.837H40.6129V142.973H29.9477ZM54.4962 142.973V133.492H49.7621V131.355H61.3315V133.492H56.624V142.973H54.4962ZM64.1774 142.973V131.355H66.3051V136.082H73.8851V131.355H76.0128V142.973H73.8851V138.246H66.3051V142.973H64.1774ZM81.6247 142.973C81.2257 142.973 80.8534 142.866 80.5076 142.679C80.1619 142.493 79.8959 142.199 79.7097 141.878C79.4969 141.531 79.3906 141.157 79.3906 140.756V133.625C79.3906 133.224 79.4969 132.851 79.7097 132.503C79.9225 132.156 80.1885 131.889 80.5076 131.702C80.8268 131.515 81.2257 131.408 81.6247 131.408H88.7259C89.1249 131.408 89.4972 131.515 89.843 131.702C90.1887 131.889 90.4547 132.183 90.6675 132.503C90.8802 132.851 90.96 133.224 90.96 133.625V140.756C90.96 141.157 90.8537 141.531 90.6675 141.878C90.4547 142.225 90.1887 142.493 89.843 142.679C89.4972 142.866 89.1249 142.973 88.7259 142.973H81.6247ZM81.7045 140.81H88.6195C88.6195 140.81 88.7259 140.81 88.7525 140.756C88.7791 140.703 88.8057 140.676 88.8057 140.623V133.679C88.8057 133.679 88.8057 133.572 88.7525 133.545C88.6993 133.518 88.6727 133.492 88.6195 133.492H81.7045C81.7045 133.492 81.5981 133.492 81.5715 133.545C81.5449 133.598 81.5183 133.625 81.5183 133.679V140.623C81.5183 140.623 81.5183 140.73 81.5715 140.756C81.6247 140.783 81.6513 140.81 81.7045 140.81ZM95.4283 142.653C95.0825 142.439 94.8165 142.172 94.6304 141.852C94.4176 141.504 94.3112 141.13 94.3112 140.73V131.355H96.4389V140.623C96.4389 140.623 96.4389 140.73 96.4921 140.756C96.5453 140.783 96.5719 140.81 96.6251 140.81H103.54C103.54 140.81 103.647 140.81 103.673 140.756C103.7 140.703 103.726 140.676 103.726 140.623V131.355H105.854V140.73C105.854 141.13 105.748 141.504 105.562 141.852C105.349 142.199 105.083 142.466 104.737 142.653C104.391 142.84 104.019 142.947 103.62 142.947H96.5187C96.1198 142.947 95.7474 142.84 95.4017 142.653H95.4283ZM111.439 142.973C111.04 142.973 110.668 142.866 110.322 142.679C109.977 142.466 109.711 142.199 109.524 141.878C109.312 141.531 109.232 141.157 109.232 140.756V139.875H111.36V140.676C111.36 140.676 111.36 140.783 111.413 140.81C111.466 140.837 111.493 140.863 111.546 140.863H118.461C118.461 140.863 118.567 140.863 118.594 140.81C118.62 140.756 118.647 140.73 118.647 140.676V138.459C118.647 138.459 118.647 138.353 118.594 138.326C118.541 138.299 118.514 138.273 118.461 138.273H111.466C111.067 138.273 110.695 138.166 110.349 137.979C110.003 137.765 109.737 137.498 109.551 137.177C109.365 136.857 109.258 136.456 109.258 136.029V133.652C109.258 133.251 109.365 132.877 109.551 132.53C109.737 132.183 110.03 131.916 110.349 131.729C110.695 131.515 111.067 131.435 111.466 131.435H118.567C118.966 131.435 119.339 131.542 119.684 131.729C120.03 131.942 120.296 132.21 120.482 132.53C120.668 132.851 120.775 133.251 120.775 133.652V134.533H118.647V133.732C118.647 133.732 118.647 133.625 118.594 133.598C118.541 133.572 118.514 133.545 118.461 133.545H111.546C111.546 133.545 111.439 133.545 111.413 133.598C111.386 133.652 111.36 133.679 111.36 133.732V135.949C111.36 135.949 111.36 136.056 111.413 136.082C111.439 136.109 111.493 136.136 111.546 136.136H118.567C118.966 136.136 119.339 136.243 119.684 136.43C120.03 136.643 120.296 136.91 120.482 137.258C120.668 137.605 120.775 137.979 120.775 138.406V140.783C120.775 141.184 120.668 141.558 120.482 141.905C120.269 142.252 120.003 142.519 119.684 142.706C119.339 142.92 118.966 143 118.567 143H111.466L111.439 142.973ZM124.152 133.598C124.152 133.198 124.259 132.824 124.445 132.477C124.658 132.129 124.924 131.862 125.243 131.675C125.562 131.488 125.961 131.382 126.36 131.382H133.435C133.834 131.382 134.206 131.488 134.552 131.675C134.897 131.862 135.163 132.156 135.376 132.477C135.589 132.797 135.669 133.198 135.669 133.598V142.973H133.541V139.074H126.227V142.973H124.099V133.598H124.152ZM133.594 136.937V133.705C133.594 133.705 133.594 133.598 133.541 133.572C133.488 133.545 133.461 133.518 133.408 133.518H126.493C126.493 133.518 126.387 133.518 126.36 133.572C126.333 133.625 126.307 133.652 126.307 133.705V136.937H133.621H133.594ZM139.18 142.973V131.355H141.52L148.621 139.848V131.355H150.749V142.973H148.408L141.281 134.48V142.973H139.153H139.18ZM154.18 142.973V131.355H163.489C163.888 131.355 164.26 131.462 164.606 131.649C164.952 131.836 165.217 132.129 165.43 132.45C165.643 132.77 165.723 133.171 165.723 133.572V140.703C165.723 141.104 165.616 141.478 165.43 141.825C165.217 142.172 164.952 142.439 164.606 142.626C164.26 142.813 163.888 142.92 163.489 142.92H154.18V142.973ZM156.467 140.81H163.382C163.382 140.81 163.489 140.81 163.515 140.756C163.542 140.703 163.568 140.676 163.568 140.623V133.679C163.568 133.679 163.568 133.572 163.515 133.545C163.462 133.518 163.436 133.492 163.382 133.492H156.467C156.467 133.492 156.361 133.492 156.334 133.545C156.308 133.598 156.281 133.625 156.281 133.679V140.623C156.281 140.623 156.281 140.73 156.334 140.756C156.387 140.783 156.414 140.81 156.467 140.81ZM175.51 142.973V142.386L179.872 137.177L175.51 131.969V131.382H177.798L181.255 135.521L184.686 131.382H187V131.969L182.638 137.177L187 142.386V143H184.686L181.229 138.887L177.771 143H175.484L175.51 142.973ZM41.4639 63.1935L82.2098 22.2753C82.3694 22.1151 82.4492 21.9281 82.4492 21.7144V0.80127C82.4492 0.347217 82.0768 0 81.6513 0H55.2675C55.0548 0 54.8686 0.080127 54.709 0.240381L36.3308 18.6963C35.8255 19.2038 36.1978 20.0585 36.8894 20.0585H39.3362C39.7618 20.0585 40.1341 20.4057 40.1341 20.8597V62.6593C40.1341 63.3537 40.9852 63.7277 41.4905 63.2202L41.4639 63.1935ZM150.855 34.0273V0.80127C150.855 0.373926 150.51 0 150.057 0H116.971C116.759 0 116.572 0.080127 116.413 0.240381L40.3469 76.6014C40.1873 76.7617 40.1075 76.9486 40.1075 77.1623V102.242C40.1075 102.669 40.4533 103.043 40.9054 103.043H82.1034C82.3162 103.043 82.5023 102.963 82.6619 102.803L111.439 73.9038C113.833 71.5 116.253 72.4615 116.599 75.7467C116.599 75.7734 116.599 75.8269 116.599 75.8536V102.242C116.599 102.669 116.945 103.043 117.397 103.043H150.057C150.483 103.043 150.855 102.696 150.855 102.242V69.4434C150.855 69.0161 150.51 68.6421 150.057 68.6421H123.355C123.355 68.6421 123.275 68.6421 123.248 68.6421C120.216 68.2682 119.658 65.6774 122.238 63.0867L150.643 34.5614C150.802 34.4012 150.882 34.2142 150.882 34.0006L150.855 34.0273Z" fill="#E65100"/>
</svg>
